<mxfile host="app.diagrams.net" modified="2022-03-21T16:31:31.776Z" agent="5.0 (Windows NT 10.0; Win64; x64) AppleWebKit/537.36 (KHTML, like Gecko) Chrome/99.0.4844.74 Safari/537.36" etag="CQARBB2RwCSQfHW4Xseu" version="17.0.0" type="github">
  <diagram id="1eWlX_gmC8AWpjqcv518" name="Page-1">
    <mxGraphModel dx="868" dy="593" grid="1" gridSize="10" guides="1" tooltips="1" connect="1" arrows="1" fold="1" page="1" pageScale="1" pageWidth="827" pageHeight="1169" math="0" shadow="0">
      <root>
        <mxCell id="0" />
        <mxCell id="1" parent="0" />
        <mxCell id="VG_850O1k67QEhFtFB8n-35" style="edgeStyle=orthogonalEdgeStyle;rounded=0;orthogonalLoop=1;jettySize=auto;html=1;entryX=1;entryY=0.5;entryDx=0;entryDy=0;" edge="1" parent="1" source="VG_850O1k67QEhFtFB8n-12" target="VG_850O1k67QEhFtFB8n-26">
          <mxGeometry relative="1" as="geometry" />
        </mxCell>
        <mxCell id="VG_850O1k67QEhFtFB8n-12" value="intelipost" style="whiteSpace=wrap;html=1;aspect=fixed;fillColor=#d5e8d4;strokeColor=#82b366;" vertex="1" parent="1">
          <mxGeometry x="670" y="280" width="80" height="80" as="geometry" />
        </mxCell>
        <mxCell id="VG_850O1k67QEhFtFB8n-19" style="edgeStyle=orthogonalEdgeStyle;rounded=0;orthogonalLoop=1;jettySize=auto;html=1;entryX=0.5;entryY=0;entryDx=0;entryDy=0;" edge="1" parent="1" source="VG_850O1k67QEhFtFB8n-13" target="VG_850O1k67QEhFtFB8n-18">
          <mxGeometry relative="1" as="geometry" />
        </mxCell>
        <mxCell id="VG_850O1k67QEhFtFB8n-13" value="requisicao" style="whiteSpace=wrap;html=1;aspect=fixed;" vertex="1" parent="1">
          <mxGeometry x="380" y="30" width="80" height="80" as="geometry" />
        </mxCell>
        <mxCell id="VG_850O1k67QEhFtFB8n-15" value="api" style="whiteSpace=wrap;html=1;aspect=fixed;" vertex="1" parent="1">
          <mxGeometry x="210" y="280" width="80" height="80" as="geometry" />
        </mxCell>
        <mxCell id="VG_850O1k67QEhFtFB8n-22" style="edgeStyle=orthogonalEdgeStyle;rounded=0;orthogonalLoop=1;jettySize=auto;html=1;entryX=0.5;entryY=0;entryDx=0;entryDy=0;" edge="1" parent="1" source="VG_850O1k67QEhFtFB8n-18" target="VG_850O1k67QEhFtFB8n-15">
          <mxGeometry relative="1" as="geometry" />
        </mxCell>
        <mxCell id="VG_850O1k67QEhFtFB8n-25" style="edgeStyle=orthogonalEdgeStyle;rounded=0;orthogonalLoop=1;jettySize=auto;html=1;entryX=1;entryY=0.5;entryDx=0;entryDy=0;" edge="1" parent="1" source="VG_850O1k67QEhFtFB8n-18" target="VG_850O1k67QEhFtFB8n-23">
          <mxGeometry relative="1" as="geometry" />
        </mxCell>
        <mxCell id="VG_850O1k67QEhFtFB8n-18" value="orquestrador" style="whiteSpace=wrap;html=1;aspect=fixed;" vertex="1" parent="1">
          <mxGeometry x="380" y="160" width="80" height="80" as="geometry" />
        </mxCell>
        <mxCell id="VG_850O1k67QEhFtFB8n-23" value="api" style="whiteSpace=wrap;html=1;aspect=fixed;" vertex="1" parent="1">
          <mxGeometry x="40" y="100" width="80" height="80" as="geometry" />
        </mxCell>
        <mxCell id="VG_850O1k67QEhFtFB8n-37" style="edgeStyle=orthogonalEdgeStyle;rounded=0;orthogonalLoop=1;jettySize=auto;html=1;exitX=0;exitY=0.5;exitDx=0;exitDy=0;entryX=1;entryY=0.5;entryDx=0;entryDy=0;" edge="1" parent="1" source="VG_850O1k67QEhFtFB8n-26" target="VG_850O1k67QEhFtFB8n-15">
          <mxGeometry relative="1" as="geometry" />
        </mxCell>
        <mxCell id="VG_850O1k67QEhFtFB8n-26" value="" style="rhombus;whiteSpace=wrap;html=1;" vertex="1" parent="1">
          <mxGeometry x="440" y="280" width="80" height="80" as="geometry" />
        </mxCell>
        <mxCell id="VG_850O1k67QEhFtFB8n-36" style="edgeStyle=orthogonalEdgeStyle;rounded=0;orthogonalLoop=1;jettySize=auto;html=1;entryX=0.5;entryY=1;entryDx=0;entryDy=0;" edge="1" parent="1" source="VG_850O1k67QEhFtFB8n-34" target="VG_850O1k67QEhFtFB8n-26">
          <mxGeometry relative="1" as="geometry" />
        </mxCell>
        <mxCell id="VG_850O1k67QEhFtFB8n-34" value="contingencia" style="ellipse;whiteSpace=wrap;html=1;fillColor=#f8cecc;strokeColor=#b85450;" vertex="1" parent="1">
          <mxGeometry x="420" y="430" width="120" height="80" as="geometry" />
        </mxCell>
      </root>
    </mxGraphModel>
  </diagram>
</mxfile>
